<?xml version="1.0" encoding="utf-8"?>
<!-- Generator: Adobe Illustrator 24.1.1, SVG Export Plug-In . SVG Version: 6.00 Build 0)  -->
<svg version="1.1" id="Layer_1" xmlns="http://www.w3.org/2000/svg" xmlns:xlink="http://www.w3.org/1999/xlink" x="0px" y="0px"
	 viewBox="0 0 100 100" style="enable-background:new 0 0 100 100;" xml:space="preserve">
<style type="text/css">
	.st0{fill:#231F20;}
	.st1{fill:#EE5A2B;}
	.st2{fill:#FEFEFE;}
</style>
<g>
	<path class="st0" d="M0.23,49.96C16.89,33.31,33.53,16.66,50.19,0c0.2,0.08,0.36,0.31,0.55,0.5C67,16.77,83.27,33.03,99.53,49.29
		c0.63,0.63,0.63,0.63-0.02,1.28c-6.72,6.72-13.45,13.45-20.17,20.17c-9.5,9.5-19,19-28.49,28.5c-0.23,0.23-0.4,0.52-0.58,0.75
		C33.49,83.23,16.85,66.58,0.23,49.96z M34.17,46.63c-0.06,0.04-0.15,0.08-0.19,0.14c-1.53,2.44-3.06,4.89-4.68,7.28
		c-0.42,0.62-0.57,1.34-0.55,2.1c0.02,0.83,0.19,1.62,0.41,2.41c0.51,1.84,1.35,3.56,2.09,5.31c0.3,0.7,0.74,1.11,1.39,1.37
		c1.52,0.59,3.04,1.17,4.56,1.77c0.29,0.11,0.49,0.08,0.73-0.13c0.87-0.79,1.76-1.54,2.74-2.19c0.29-0.19,0.38-0.42,0.37-0.75
		c-0.03-0.94-0.25-1.83-0.57-2.7c-0.5-1.35-0.97-2.71-1.4-4.09c-0.05-0.15-0.07-0.32-0.25-0.44c-0.35,0.94-0.41,1.93-0.66,2.9
		c-0.88-3.12-1.73-6.25-2.18-9.54c-0.99,0.56-1.83,1.18-2.93,1.53c0.74-1.68,1.1-3.28,1.11-4.96c0.06,0.01,0.09-0.02,0.08-0.07
		c0,0-0.04,0-0.04,0.01C34.18,46.58,34.18,46.61,34.17,46.63z M42.11,34.6c-0.8,0.21-1.52,0.59-2.26,0.94
		c-0.17,0.08-0.33,0.19-0.51,0.26c-0.28,0.11-0.55,0.09-0.7-0.21c-0.15-0.3-0.02-0.52,0.25-0.67c0.05-0.03,0.1-0.05,0.15-0.07
		c3.36-1.67,6.88-2.71,10.67-2.66c0.6,0.01,1.2,0.01,1.8,0c3.65-0.04,7.05,0.92,10.29,2.53c0.15,0.07,0.29,0.15,0.43,0.23
		c0.28,0.17,0.34,0.43,0.2,0.7c-0.13,0.24-0.36,0.33-0.63,0.22c-0.15-0.06-0.29-0.14-0.44-0.21c-0.62-0.28-1.24-0.57-1.86-0.85
		c-0.16-0.07-0.32-0.16-0.48-0.06c0.01,0.21,0.13,0.29,0.22,0.39c3.14,3.1,5.71,6.65,8.15,10.3c1.74,2.6,3.45,5.23,5.17,7.85
		c0.41,0.62,0.69,1.3,0.73,2.05c0.02,0.28,0.04,0.56,0.19,0.88c0.5-0.97,0.83-1.91,0.94-2.93c0.22-1.92,0.44-3.84,0.7-5.75
		c0.05-0.39-0.1-0.6-0.35-0.84c-1.47-1.38-2.88-2.82-4.24-4.31c-4.36-4.79-8.13-10.03-11.41-15.62c-0.07-0.12-0.15-0.23-0.2-0.36
		c-0.11-0.26-0.07-0.49,0.18-0.64c0.23-0.14,0.48-0.12,0.66,0.1c0.12,0.15,0.21,0.31,0.31,0.48c2.51,4.25,5.31,8.31,8.45,12.13
		C71.68,42.31,75.14,45.85,79,49c0.78,0.63,1.64,1.05,2.62,1.27c0.56,0.13,1.14,0.18,1.7,0.2c1.77,0.06,3.48-0.16,5.01-1.15
		c0.56-0.36,0.57-0.42,0.08-0.9c-0.76-0.75-1.64-1.35-2.51-1.97c-2.14-1.51-4.33-2.94-6.43-4.5c-4.49-3.36-8.43-7.32-12.3-11.36
		c-1.1-1.15-2-2.43-2.79-3.81c-0.97-1.7-2.01-3.37-3.1-5c-1.1-1.66-2.6-2.84-4.56-3.38c-2.02-0.56-4.09-0.64-6.15-0.64
		c-1.3,0-2.61,0.1-3.91,0.22c-2.94,0.28-5.33,1.45-6.99,3.95c-0.18,0.27-0.38,0.54-0.54,0.82c-0.99,1.63-1.98,3.26-2.95,4.9
		c-0.46,0.78-0.96,1.51-1.58,2.18c-1.67,1.8-3.39,3.55-5.14,5.26c-3.28,3.2-6.7,6.23-10.54,8.77c-1.89,1.25-3.75,2.53-5.53,3.93
		c-0.32,0.25-0.61,0.54-0.91,0.82c-0.23,0.22-0.2,0.41,0.06,0.59c0.57,0.38,1.17,0.69,1.83,0.89c1.54,0.45,3.11,0.52,4.69,0.27
		c1.15-0.18,2.16-0.65,3.08-1.4c4.21-3.46,7.95-7.37,11.34-11.63c2.79-3.5,5.29-7.2,7.56-11.06c0.33-0.56,0.63-0.7,0.94-0.5
		c0.28,0.18,0.27,0.49-0.04,1.02c-4.25,7.2-9.23,13.81-15.32,19.57c-0.54,0.51-0.74,1-0.62,1.71c0.3,1.69,0.43,3.4,0.63,5.1
		c0.13,1.05,0.4,2.05,0.98,3c0.17-0.22,0.11-0.41,0.12-0.58c0.02-0.9,0.35-1.69,0.84-2.44c1.42-2.13,2.82-4.28,4.23-6.42
		c1.44-2.18,2.89-4.36,4.5-6.42c1.53-1.96,3.23-3.76,4.9-5.59c0.06-0.03,0.14-0.07,0.08-0.15C42.25,34.51,42.17,34.55,42.11,34.6z
		 M59.82,49.63c-0.13,0.04-0.21-0.03-0.29-0.11c-2.21-2.31-4.68-4.41-5.98-7.48c0.31,3.49-0.51,6.87-0.65,10.46
		c-1.95-1.36-3.49-2.9-4.87-4.63c-1.38-1.73-1.99-3.84-2.86-6.01c-0.41,4.24-1.52,7.93-2.72,9.13c0.06-1.12-0.23-2.14-0.58-3.14
		c-0.37-1.06-0.57-2.16-0.63-3.28c-0.03-0.57-0.04-1.15-0.06-1.83c-0.11,0.16-0.14,0.2-0.16,0.24c-0.58,1.5-1.24,2.96-2.34,4.18
		c-0.19,0.21-0.15,0.43-0.12,0.68c0.22,1.56,0.48,3.12,0.61,4.7c0.17,1.91,0.96,3.48,2.28,4.84c1.87,1.94,3.78,3.85,5.76,5.68
		c1.71,1.57,4.91,1.48,6.55,0.04c0.55-0.49,1.08-1,1.62-1.5c1.74-1.61,3.46-3.24,5-5.05c0.7-0.83,1.2-1.76,1.36-2.83
		c0.35-2.34,0.66-4.69,1-7.03c0.04-0.28-0.11-0.39-0.29-0.52c-1.48-1.07-2.85-2.27-3.89-3.82C59.12,44.75,59.73,47.14,59.82,49.63z
		 M38.66,67.55c0.55,0.27,0.98,0.48,1.42,0.69c1.84,0.9,3.25,2.26,4.21,4.07c0.15,0.29,0.39,0.59,0.13,0.9
		c-0.23,0.27-0.08,0.38,0.11,0.5c0.56,0.34,1.1,0.7,1.69,0.98c3.77,1.8,7.31,1.35,10.7-1.17c-0.59-0.41-0.38-0.82-0.12-1.28
		c1.01-1.78,2.43-3.12,4.27-4.01c0.43-0.21,0.86-0.42,1.36-0.67c-1.51-1.38-3.06-2.53-4.88-3.5c0,0.41-0.01,0.7,0,0.99
		c0.02,0.52,0.06,1.03,0.07,1.55c0.01,0.27-0.09,0.49-0.4,0.52c-0.31,0.03-0.54-0.1-0.61-0.41c-0.05-0.21-0.05-0.43-0.06-0.65
		c-0.01-1.14,0-2.29-0.02-3.43c0-0.2,0.11-0.42-0.22-0.71c-0.34,0.39-0.66,0.8-1.01,1.17c-1.45,1.55-3.24,2.19-5.36,2.03
		c-1.35-0.1-2.55-0.5-3.56-1.41c-0.51-0.46-0.98-0.94-1.49-1.4c-0.12-0.11-0.2-0.35-0.47-0.22c0.1,1.36,0.06,2.72,0.01,4.08
		c-0.01,0.19,0,0.38-0.05,0.57c-0.07,0.27-0.29,0.4-0.56,0.38c-0.29-0.01-0.44-0.2-0.43-0.49c0.01-0.41,0.04-0.82,0.05-1.22
		c0.01-0.41,0-0.83,0-1.33C41.69,65.07,40.17,66.2,38.66,67.55z M65.12,48.03c0.06,2.13-0.29,4.05-0.73,5.95
		c-0.44,1.88-0.88,3.76-1.49,5.59c-0.2-0.98-0.3-1.95-0.7-3.03c-0.56,2.09-1.38,3.93-1.92,5.87c-0.12,0.42-0.16,0.85-0.23,1.28
		c-0.07,0.44,0.04,0.76,0.45,1.03c0.93,0.61,1.8,1.32,2.61,2.09c0.22,0.21,0.41,0.28,0.72,0.16c1.52-0.6,3.05-1.16,4.57-1.74
		c0.68-0.26,1.26-0.63,1.43-1.42c0.04-0.18,0.17-0.34,0.25-0.51c0.89-1.9,1.72-3.82,2.12-5.89c0.27-1.44,0.14-2.8-0.8-4.03
		c-0.67-0.89-1.25-1.85-1.87-2.77c-0.15-0.22-0.27-0.46-0.55-0.57C67.67,49.55,66.46,48.87,65.12,48.03z M27.51,70.31
		c4.92,4.92,9.8,9.8,14.68,14.68c0-0.21,0-0.47,0-0.73c0-3.81,0-7.62,0-11.43c0-0.35-0.08-0.74,0.17-1.02
		c0.27-0.31,0.08-0.48-0.1-0.69c-0.75-0.89-1.7-1.52-2.72-2.04c-1.35-0.69-2.78-1.22-4.19-1.79c-0.39-0.16-0.7-0.12-1.06,0.09
		c-2.04,1.15-4.18,2.06-6.4,2.79C27.73,70.22,27.57,70.24,27.51,70.31z M73.04,70.08c-2.18-0.72-4.26-1.63-6.26-2.74
		c-0.27-0.15-0.51-0.24-0.83-0.11c-1.57,0.61-3.15,1.2-4.64,1.99c-0.84,0.45-1.64,0.97-2.29,1.69c-0.28,0.31-0.66,0.59-0.23,1.09
		c0.17,0.2,0.06,0.53,0.06,0.8c0,3.62,0,7.24,0.01,10.87c0,0.2-0.05,0.42,0.03,0.56C63.61,79.51,68.3,74.82,73.04,70.08z
		 M41.37,64.16c0.52-0.3,0.89-0.51,1.24-0.73c0.45-0.28,0.49-0.38,0.27-0.84c-0.09-0.2-0.14-0.47-0.49-0.5
		C42.21,62.78,41.79,63.37,41.37,64.16z M59.56,63.96c-0.36-0.69-0.71-1.26-0.94-1.91c-0.78,0.82-0.77,1.04,0.09,1.54
		C58.94,63.72,59.14,63.91,59.56,63.96z M58.81,34.57l-0.04,0.05l0.06,0.01L58.81,34.57z"/>
	<path class="st1" d="M42.22,34.72c-1.67,1.83-3.37,3.63-4.9,5.59c-1.61,2.06-3.07,4.24-4.5,6.42c-1.41,2.14-2.81,4.28-4.23,6.42
		c-0.49,0.74-0.82,1.53-0.84,2.44c0,0.17,0.05,0.37-0.12,0.58c-0.58-0.95-0.85-1.95-0.98-3c-0.2-1.7-0.33-3.42-0.63-5.1
		c-0.13-0.71,0.08-1.2,0.62-1.71c6.08-5.76,11.07-12.37,15.32-19.57c0.31-0.53,0.31-0.83,0.04-1.02c-0.31-0.21-0.61-0.06-0.94,0.5
		c-2.27,3.86-4.77,7.55-7.56,11.06c-3.39,4.26-7.13,8.17-11.34,11.63c-0.92,0.76-1.93,1.22-3.08,1.4c-1.58,0.25-3.15,0.18-4.69-0.27
		c-0.66-0.19-1.26-0.51-1.83-0.89c-0.27-0.18-0.3-0.37-0.06-0.59c0.3-0.28,0.59-0.57,0.91-0.82c1.78-1.4,3.64-2.69,5.53-3.93
		c3.84-2.54,7.26-5.57,10.54-8.77c1.76-1.71,3.48-3.46,5.14-5.26c0.62-0.67,1.12-1.4,1.58-2.18c0.97-1.64,1.96-3.27,2.95-4.9
		c0.17-0.28,0.36-0.54,0.54-0.82c1.66-2.5,4.06-3.67,6.99-3.95c1.3-0.12,2.62-0.22,3.91-0.22c2.06,0,4.14,0.08,6.15,0.64
		c1.96,0.55,3.46,1.72,4.56,3.38c1.08,1.63,2.13,3.3,3.1,5c0.79,1.38,1.68,2.66,2.79,3.81c3.87,4.04,7.81,8,12.3,11.36
		c2.09,1.57,4.29,3,6.43,4.5c0.87,0.61,1.75,1.22,2.51,1.97c0.48,0.48,0.47,0.54-0.08,0.9c-1.53,0.99-3.25,1.21-5.01,1.15
		c-0.56-0.02-1.14-0.08-1.7-0.2C80.64,50.05,79.78,49.64,79,49c-3.86-3.15-7.32-6.69-10.48-10.53c-3.14-3.82-5.93-7.87-8.45-12.13
		c-0.1-0.16-0.19-0.33-0.31-0.48c-0.18-0.22-0.43-0.24-0.66-0.1c-0.25,0.15-0.28,0.39-0.18,0.64c0.05,0.12,0.13,0.24,0.2,0.36
		c3.28,5.59,7.04,10.82,11.41,15.62c1.36,1.49,2.77,2.93,4.24,4.31c0.25,0.24,0.41,0.44,0.35,0.84c-0.26,1.91-0.49,3.83-0.7,5.75
		c-0.12,1.02-0.44,1.95-0.94,2.93c-0.15-0.32-0.17-0.6-0.19-0.88c-0.05-0.76-0.32-1.43-0.73-2.05c-1.72-2.62-3.43-5.25-5.17-7.85
		c-2.45-3.65-5.02-7.2-8.15-10.3c-0.09-0.09-0.21-0.18-0.22-0.39c0.16-0.1,0.32-0.02,0.48,0.06c0.62,0.28,1.24,0.57,1.86,0.85
		c0.15,0.07,0.29,0.15,0.44,0.21c0.27,0.11,0.5,0.02,0.63-0.22c0.15-0.27,0.09-0.53-0.2-0.7c-0.14-0.08-0.28-0.16-0.43-0.23
		c-3.24-1.61-6.64-2.57-10.29-2.53c-0.6,0.01-1.2,0.01-1.8,0c-3.79-0.05-7.31,1-10.67,2.66c-0.05,0.02-0.1,0.05-0.15,0.07
		c-0.27,0.15-0.41,0.37-0.25,0.67c0.15,0.3,0.42,0.32,0.7,0.21c0.18-0.07,0.34-0.18,0.51-0.26c0.74-0.35,1.46-0.73,2.26-0.94
		C42.15,34.64,42.18,34.68,42.22,34.72z"/>
	<path class="st2" d="M59.82,49.63c-0.08-2.48-0.69-4.88-1.26-7.3c1.04,1.55,2.41,2.75,3.89,3.82c0.18,0.13,0.33,0.25,0.29,0.52
		c-0.34,2.34-0.65,4.69-1,7.03c-0.16,1.07-0.65,2-1.36,2.83c-1.54,1.81-3.25,3.45-5,5.05c-0.54,0.5-1.07,1.01-1.62,1.5
		c-1.63,1.45-4.84,1.53-6.55-0.04c-1.99-1.82-3.89-3.73-5.76-5.68c-1.32-1.37-2.11-2.93-2.28-4.84c-0.14-1.57-0.4-3.13-0.61-4.7
		c-0.03-0.25-0.08-0.47,0.12-0.68c1.1-1.21,1.76-2.67,2.34-4.18c0.02-0.04,0.05-0.08,0.16-0.24c0.02,0.69,0.02,1.26,0.06,1.83
		c0.06,1.12,0.26,2.21,0.63,3.28c0.35,1,0.64,2.02,0.58,3.14c1.2-1.2,2.31-4.89,2.72-9.13c0.88,2.17,1.48,4.28,2.86,6.01
		c1.38,1.72,2.92,3.26,4.87,4.63c0.14-3.59,0.96-6.97,0.65-10.46c1.3,3.07,3.77,5.17,5.98,7.48C59.6,49.6,59.69,49.66,59.82,49.63z"
		/>
	<path class="st2" d="M38.66,67.55c1.51-1.35,3.03-2.48,4.82-3.45c0,0.5,0.01,0.91,0,1.33c-0.01,0.41-0.04,0.82-0.05,1.22
		c-0.01,0.29,0.14,0.47,0.43,0.49c0.27,0.01,0.49-0.11,0.56-0.38c0.05-0.18,0.04-0.38,0.05-0.57c0.05-1.36,0.09-2.72-0.01-4.08
		c0.27-0.13,0.35,0.11,0.47,0.22c0.5,0.46,0.98,0.94,1.49,1.4c1.01,0.91,2.21,1.31,3.56,1.41c2.12,0.16,3.91-0.48,5.36-2.03
		c0.35-0.38,0.67-0.78,1.01-1.17c0.32,0.28,0.22,0.51,0.22,0.71c0.01,1.14,0.01,2.29,0.02,3.43c0,0.22,0.01,0.44,0.06,0.65
		c0.07,0.31,0.3,0.44,0.61,0.41c0.31-0.03,0.4-0.26,0.4-0.52c-0.02-0.52-0.06-1.03-0.07-1.55c-0.01-0.29,0-0.58,0-0.99
		c1.82,0.97,3.36,2.12,4.88,3.5c-0.51,0.25-0.93,0.46-1.36,0.67c-1.84,0.89-3.26,2.23-4.27,4.01c-0.26,0.46-0.48,0.87,0.12,1.28
		c-3.4,2.52-6.93,2.97-10.7,1.17c-0.59-0.28-1.13-0.65-1.69-0.98c-0.19-0.12-0.34-0.23-0.11-0.5c0.27-0.31,0.03-0.61-0.13-0.9
		c-0.97-1.81-2.37-3.17-4.21-4.07C39.65,68.03,39.21,67.82,38.66,67.55z"/>
	<path class="st1" d="M65.12,48.03c1.34,0.84,2.55,1.52,3.86,2.01c0.29,0.11,0.4,0.35,0.55,0.57c0.62,0.93,1.2,1.89,1.87,2.77
		c0.94,1.23,1.07,2.59,0.8,4.03c-0.39,2.07-1.23,4-2.12,5.89c-0.08,0.17-0.21,0.33-0.25,0.51c-0.17,0.79-0.75,1.16-1.43,1.42
		c-1.52,0.58-3.05,1.14-4.57,1.74c-0.31,0.12-0.5,0.05-0.72-0.16c-0.81-0.77-1.68-1.48-2.61-2.09c-0.41-0.27-0.53-0.59-0.45-1.03
		c0.07-0.43,0.11-0.87,0.23-1.28c0.54-1.94,1.36-3.78,1.92-5.87c0.39,1.08,0.49,2.05,0.7,3.03c0.61-1.83,1.05-3.72,1.49-5.59
		C64.82,52.08,65.18,50.16,65.12,48.03z"/>
	<path class="st1" d="M34.16,46.62c-0.01,1.68-0.37,3.28-1.11,4.96c1.09-0.35,1.94-0.97,2.93-1.53c0.44,3.29,1.3,6.41,2.18,9.54
		c0.25-0.97,0.31-1.96,0.66-2.9c0.18,0.12,0.21,0.29,0.25,0.44c0.43,1.38,0.9,2.74,1.4,4.09c0.33,0.87,0.54,1.77,0.57,2.7
		c0.01,0.33-0.08,0.56-0.37,0.75c-0.98,0.65-1.88,1.4-2.74,2.19c-0.24,0.22-0.44,0.25-0.73,0.13c-1.52-0.6-3.04-1.18-4.56-1.77
		c-0.66-0.26-1.09-0.66-1.39-1.37c-0.74-1.75-1.57-3.47-2.09-5.31c-0.22-0.79-0.39-1.58-0.41-2.41c-0.02-0.76,0.13-1.48,0.55-2.1
		c1.61-2.39,3.14-4.84,4.68-7.28c0.04-0.06,0.12-0.09,0.19-0.14L34.16,46.62z"/>
	<path class="st2" d="M27.51,70.31c0.06-0.07,0.22-0.1,0.37-0.15c2.22-0.73,4.37-1.64,6.4-2.79c0.36-0.2,0.67-0.25,1.06-0.09
		c1.41,0.56,2.83,1.09,4.19,1.79c1.02,0.52,1.98,1.15,2.72,2.04c0.18,0.21,0.37,0.38,0.1,0.69c-0.25,0.28-0.17,0.67-0.17,1.02
		c0,3.81,0,7.62,0,11.43c0,0.26,0,0.53,0,0.73C37.31,80.11,32.43,75.23,27.51,70.31z"/>
	<path class="st2" d="M73.04,70.08c-4.74,4.74-9.43,9.43-14.14,14.14c-0.09-0.14-0.03-0.36-0.03-0.56c0-3.62,0-7.24-0.01-10.87
		c0-0.27,0.11-0.6-0.06-0.8c-0.43-0.5-0.05-0.77,0.23-1.09c0.65-0.72,1.44-1.24,2.29-1.69c1.49-0.79,3.07-1.38,4.64-1.99
		c0.32-0.12,0.56-0.04,0.83,0.11C68.78,68.46,70.86,69.37,73.04,70.08z"/>
	<path class="st1" d="M41.37,64.16c0.42-0.79,0.84-1.38,1.02-2.07c0.35,0.03,0.4,0.3,0.49,0.5c0.22,0.46,0.18,0.56-0.27,0.84
		C42.26,63.65,41.89,63.86,41.37,64.16z"/>
	<path class="st1" d="M59.56,63.96c-0.42-0.05-0.62-0.24-0.85-0.38c-0.86-0.49-0.87-0.72-0.09-1.54
		C58.85,62.7,59.2,63.27,59.56,63.96z"/>
	<polygon class="st1" points="58.81,34.57 58.83,34.63 58.77,34.62 	"/>
	<path class="st1" d="M34.17,46.63c0.01-0.02,0.01-0.05,0.02-0.07c0.01-0.01,0.04-0.01,0.04-0.01c0.01,0.05-0.01,0.07-0.08,0.07
		C34.16,46.62,34.17,46.63,34.17,46.63z"/>
	<path class="st1" d="M42.11,34.6c0.06-0.05,0.14-0.09,0.19-0.03c0.06,0.08-0.02,0.12-0.08,0.15C42.18,34.68,42.15,34.64,42.11,34.6
		z"/>
</g>
</svg>
