<?xml version="1.0" encoding="UTF-8"?>
<svg width="720px" height="720px" viewBox="0 0 720 720" version="1.1" xmlns="http://www.w3.org/2000/svg" xmlns:xlink="http://www.w3.org/1999/xlink">
    <title>Profile Picture</title>
    <g id="Profile-Picture" stroke="none" stroke-width="1" fill="none" fill-rule="evenodd">
        <rect fill="#000A25" x="0" y="0" width="720" height="720"></rect>
        <g id="Group" transform="translate(118.000000, 118.000000)">
            <circle id="Oval" fill="#FFFFFF" fill-rule="nonzero" cx="239.821998" cy="240.242009" r="33.99"></circle>
            <path d="M374.681998,240.352009 C374.720682,270.09767 364.851349,299.009009 346.631998,322.522009 L370.941998,346.722009 C421.376105,284.734655 421.376105,195.859362 370.941998,133.872009 L346.631998,158.072009 C364.867007,181.618807 374.736754,210.570064 374.681998,240.352009 L374.681998,240.352009 Z" id="Path" fill="#FFFFFF"></path>
            <path d="M421.651998,397.542009 C499.830579,307.329494 499.830579,173.374523 421.651998,83.1620085 L395.031998,109.672009 C458.667429,185.130075 458.667429,295.463942 395.031998,370.922009 L421.651998,397.542009 Z" id="Path" fill="#FFFFFF"></path>
            <path d="M306.701998,240.352009 C306.64802,251.9536 303.536835,263.335985 297.681998,273.352009 L322.321998,297.992009 C346.830004,263.271172 346.830004,216.882845 322.321998,182.162009 L297.681998,206.802009 C303.630895,216.97913 306.745469,228.563825 306.701998,240.352009 L306.701998,240.352009 Z" id="Path" fill="#FFFFFF"></path>
            <path d="M239.931998,442.532009 C155.266466,442.617893 79.4532351,390.107837 49.7652466,310.817969 C20.0772581,231.528101 42.7600456,142.138822 106.661807,86.5976234 C170.563567,31.0564245 262.241134,21.0476414 336.621998,61.4920085 L311.211998,86.7920085 C235.886701,51.7780564 146.283214,76.751126 99.9270316,145.678491 C53.5708494,214.605856 64.2330106,307.011253 125.068401,363.57036 C185.903792,420.129467 278.840032,424.04026 344.211998,372.792009 L270.621998,299.532009 C261.167524,304.536059 250.629063,307.142346 239.931998,307.122009 C212.232398,307.12912 187.40482,290.032961 177.530978,264.152946 C167.657136,238.272931 174.787691,208.983984 195.452739,190.53883 C216.117787,172.093676 246.025481,168.32312 270.621998,181.062009 L295.481998,156.312009 C259.466752,132.492064 212.277559,134.268018 178.15457,160.727598 C144.031581,187.187178 130.561165,232.447776 144.662806,273.259925 C158.764448,314.072073 197.303009,341.36224 240.481998,341.112009 C246.385201,341.069215 252.273705,340.517168 258.081998,339.462009 L285.801998,367.182009 C225.252674,388.982118 157.736557,364.963042 124.560117,309.81969 C91.3836775,254.676338 101.791835,183.77491 149.416861,140.493017 C197.041887,97.2111233 268.612633,93.6096603 320.341998,131.892009 L395.471998,56.7620085 C298.063094,-25.5423868 153.331857,-17.4434015 65.713653,75.2148873 C-21.904551,167.873176 -21.904551,312.830841 65.713653,405.48913 C153.331857,498.147419 298.063094,506.246404 395.471998,423.942009 L368.961998,397.322009 C332.497947,426.902187 286.883992,442.88457 239.931998,442.532009 Z" id="Path" fill="#21D8D8"></path>
        </g>
    </g>
</svg>