<?xml version="1.0" encoding="utf-8"?>
<!-- Generator: Adobe Illustrator 24.2.1, SVG Export Plug-In . SVG Version: 6.00 Build 0)  -->
<svg version="1.1" id="Layer_1" xmlns="http://www.w3.org/2000/svg" xmlns:xlink="http://www.w3.org/1999/xlink" x="0px" y="0px"
	 viewBox="0 0 285 230" style="enable-background:new 0 0 285 230;" xml:space="preserve">
<style type="text/css">
	.st0{fill:#1FAAFF;}
	.st1{fill:#FFFFFF;}
</style>
<g>
	<path class="st0" d="M273.3,230.37h-261c-6.6,0-12-5.4-12-12V12.26c0-6.6,5.4-12,12-12h261c6.6,0,12,5.4,12,12v206.11
		C285.3,224.97,279.9,230.37,273.3,230.37z"/>
</g>
<g>
	<g>
		<g>
			<path class="st1" d="M61.2,84.94v-47.3h9.1v48.1c0,17.4-9.8,25.5-26.9,25.5c-18.6,0-26.4-8.8-26.4-25.7v-47.9h9.2v47
				c0,13.4,6.1,18.6,17.6,18.6C55.4,103.24,61.2,98.54,61.2,84.94z"/>
		</g>
	</g>
	<g>
		<g>
			<path class="st1" d="M126.3,110.04h-9.1v-33.5c0-7.1-2.6-11-9.6-11c-5.9,0-12.3,3.8-15,6.2v38.3h-9.1v-51.4h8l0.5,6.1
				c5-4,11.4-7.2,18.5-7.2c11,0,15.8,6,15.8,17.6V110.04z"/>
		</g>
	</g>
	<g>
		<g>
			<path class="st1" d="M150.8,110.04h-9.1v-51.4h9.1V110.04z"/>
		</g>
	</g>
</g>
<g>
	<g>
		<g>
			<path class="st1" d="M159.26,181.14c0,2.8,0.5,4,3.1,4c0.9,0,1.8-0.2,3.1-0.6l0.4,5.7c-2,1-4.6,1.6-7.1,1.6
				c-5.1,0-7.4-2.8-7.9-6.1c-4,4-9.3,6.3-16.5,6.3c-13,0-15.2-8.8-15.2-13.8c0-13.7,12.1-17.5,26.6-17.5c1.6,0,3.1,0.1,4.5,0.2v-5
				c0-6.5-1.8-10.5-10.2-10.5c-7.1,0-9.8,2.8-10.9,8.5l-8-1.5c1.6-9.6,7.8-14.1,19.7-14.1c12.7,0,18.4,4.9,18.4,17.7V181.14z
				 M150.36,167.54c-1.4-0.2-3.3-0.3-5.2-0.3c-7.1,0-16.6,0.7-16.6,9.5c0,4.4,1.6,8.2,8.6,8.2c5.3,0,10.4-2.8,13.2-5.8V167.54z"/>
		</g>
	</g>
	<g>
		<g>
			<path class="st1" d="M185.26,190.84h-9.1v-51.4h7.8l0.5,5.8c5.1-3.9,10.5-6.9,17.5-6.9c6.8,0,10.9,2.3,12.9,7.1
				c5-4,10.8-7.1,17.8-7.1c10.8,0,14.6,6,14.6,17.5v35h-9.1v-33.7c0-6.9-1.4-10.8-8-10.8c-4.9,0-10.8,3.2-13.8,5.7
				c0.1,1.2,0.2,2.5,0.2,3.8v35h-9.1v-33.7c0-6.9-1.4-10.8-8-10.8c-5.2,0-11.5,3.6-14.2,6.1V190.84z"/>
		</g>
	</g>
</g>
<g>
	<g>
		<path class="st1" d="M241.11,131.41c-7.43,0-11.59-8.97-15.62-17.64c-0.81-1.75-1.6-3.44-2.33-4.86h-15.63
			c-0.58,1.03-1.21,2.19-1.86,3.38c-4.87,8.96-10.4,19.12-18.02,19.12c-15.01,0-26.77-16.18-26.77-36.83
			c0-20.65,11.76-36.83,26.77-36.83h53.46c15.01,0,26.77,16.18,26.77,36.83C267.88,115.23,256.12,131.41,241.11,131.41z
			 M187.65,66.75c-9.63,0-17.77,12.74-17.77,27.83c0,15.09,8.14,27.83,17.77,27.83c2.57-0.56,8.05-10.63,10.11-14.42
			c1.23-2.26,2.39-4.39,3.42-6.01l1.33-2.08h25.75l1.33,2.08c1.35,2.12,2.68,4.97,4.08,7.99c1.76,3.8,5.41,11.67,7.54,12.43
			c9.6-0.07,17.69-12.79,17.69-27.83c0-15.09-8.14-27.83-17.77-27.83H187.65z"/>
	</g>
</g>
<g>
	<g>
		<path class="st1" d="M219.81,64.75h-9v-9.9c0-14.03-4.35-16.5-13.5-16.5l-29.45-0.1c-14.2,0-16.98,5.13-16.98,14h-9
			c0-15.48,8.5-23,26-23l29.45,0.1c15.54,0,22.48,7.86,22.48,25.5V64.75z"/>
	</g>
</g>
<g>
	<g>
		<rect x="184.49" y="73.75" class="st1" width="9" height="24.16"/>
	</g>
</g>
<g>
	<g>
		<rect x="177.38" y="81.33" class="st1" width="23.7" height="9"/>
	</g>
</g>
<g>
	<g>
		<circle class="st1" cx="240.8" cy="78.16" r="4.41"/>
	</g>
</g>
<g>
	<g>
		<circle class="st1" cx="240.8" cy="93.03" r="4.41"/>
	</g>
</g>
<g>
	<g>
		<circle class="st1" cx="233.36" cy="85.59" r="4.41"/>
	</g>
</g>
<g>
	<g>
		<circle class="st1" cx="248.42" cy="85.7" r="4.41"/>
	</g>
</g>
<g>
	<g>
		<path class="st1" d="M91.96,136.51c-15.04-15.04-40.16-15.32-54.87-0.62l-6.36-6.36c18.15-18.15,49.11-17.87,67.6,0.62
			L91.96,136.51z"/>
	</g>
</g>
<g>
	<g>
		<path class="st1" d="M81.88,147.39c-9.08-9.08-24.81-9.26-33.68-0.4l-6.36-6.36c12.47-12.47,33.72-12.29,46.41,0.4L81.88,147.39z"
			/>
	</g>
</g>
<g>
	<g>
		<path class="st1" d="M69.29,159.18c-1.4-1.4-3.24-2.18-5.18-2.2c-1.92,0-3.69,0.7-5.01,2.03l-6.36-6.36
			c3.05-3.05,7.11-4.73,11.47-4.66c4.31,0.04,8.37,1.76,11.45,4.83L69.29,159.18z"/>
	</g>
</g>
<g>
	<g>
		<path class="st1" d="M83.36,191.4L77,191.23c-5.75-0.54-16.63-5.23-16.63-19.15v-6.83h8v6.83c0,9.71,8.16,11.04,9.26,11.17
			l5.74,0.14l7.92-0.15c1.8-0.03,10.58-0.63,10.58-10v-55.81h8v55.81c0,14.19-12.1,17.98-18.5,18L83.36,191.4z"/>
	</g>
</g>
</svg>
